<svg id="Layer_1" data-name="Layer 1" xmlns="http://www.w3.org/2000/svg" viewBox="0 0 491.56 68.61"><defs><style>.cls-1{fill:#ffffff;}</style></defs><title>sonoran-sky-logo</title><path class="cls-1" d="M69.58,23.7h4.91C79.94,32.57,86,41.22,91,50.6c-.52-8.95-.13-17.85-.26-26.87h4.27V57.6H90.49c-5.59-9.15-11.73-18.14-17-28.17.51,9.65.19,18.82.31,28.09a16.51,16.51,0,0,1-4.23.07Z" transform="translate(-8.35 -23.01)"/><path class="cls-1" d="M199.42,30c.33,9.12.14,18.23.18,27.4-1.38.53-2.76.07-4.21.3V23.61c1.33,0,2.64,0,4,0a1.45,1.45,0,0,1,1.32.79c5.35,8.68,11.25,17,16,26.36v-27a14,14,0,0,1,4.08-.13V57.61h-4.53C210.7,48.45,204.53,39.61,199.42,30Z" transform="translate(-8.35 -23.01)"/><path class="cls-1" d="M100.58,40.86c.06-5,1.25-9.6,4.86-13.24C110,23,115.65,22,121.65,24s8.76,6.7,9.77,12.62a22.76,22.76,0,0,1-.68,10.58,15.07,15.07,0,0,1-15.54,11.08c-7.36-.41-12.91-5.44-14.23-12.89A20.25,20.25,0,0,1,100.58,40.86Zm26.32-.46a16.06,16.06,0,0,0-3-9.67,9.67,9.67,0,0,0-15.34-.25c-4.17,5.28-4.22,14.87-.11,20.2a9.64,9.64,0,0,0,15.66-.33C126.14,47.46,126.82,44.2,126.9,40.4Z" transform="translate(-8.35 -23.01)"/><path class="cls-1" d="M64,40.46c0,5.31-1.25,10.26-5.37,13.9a15,15,0,0,1-15.86,2.9c-5.87-2.14-8.66-6.84-9.62-12.75a21.51,21.51,0,0,1,1.25-11.73c2.69-6.64,8.83-10.35,16.3-9.59,6.5.67,11.6,5.67,12.9,12.59A21.26,21.26,0,0,1,64,40.46Zm-26.23.28a16.07,16.07,0,0,0,2.82,9.72,9.64,9.64,0,0,0,15.55.22c4.05-5.25,4.12-14.6.15-19.9a9.69,9.69,0,0,0-15.78.2A16.41,16.41,0,0,0,37.76,40.74Z" transform="translate(-8.35 -23.01)"/><path class="cls-1" d="M405.35,57.53V24.06c4.66-.7,9.27-1.19,13.83.05,3.51,1,6,3.12,6.29,7s-1.76,6.47-5.14,8.14c.21.53.74.51,1.14.7,3.33,1.59,5.31,4.15,5.32,7.92a8.86,8.86,0,0,1-5.17,8.46,15.73,15.73,0,0,1-5.93,1.5A39.79,39.79,0,0,1,405.35,57.53Zm4.51-3.23c2.77,0,5.34.33,7.88-.61,2.74-1,4.19-2.81,4.27-5.63a5.8,5.8,0,0,0-4-5.81c-2.61-1-5.31-.81-8.09-.74Zm0-16.39c4.46.24,6.46,0,8.19-.92a5.17,5.17,0,0,0,2.87-5.22,4.75,4.75,0,0,0-3.76-4.35,16.79,16.79,0,0,0-7.31-.17Z" transform="translate(-8.35 -23.01)"/><path class="cls-1" d="M141.7,43.15V57.61h-4.37V24.05c4.73-.69,9.41-1.12,14.06,0a8.44,8.44,0,0,1,6.84,7.71,9,9,0,0,1-4.85,9l-1.29.68c2.95,1.52,4.08,4.11,4.79,7a77.85,77.85,0,0,0,2.49,9.15h-4.64a53.9,53.9,0,0,1-2.32-8.42c-.7-2.88-1.8-5.53-5.2-6A44.66,44.66,0,0,0,141.7,43.15Zm.19-15.91V39.48c1.82,0,3.52.05,5.21,0,3.78-.14,6.42-2.55,6.56-5.92.15-3.78-1.9-6-6-6.48A26.72,26.72,0,0,0,141.89,27.24Z" transform="translate(-8.35 -23.01)"/><path class="cls-1" d="M281.32,23.64H287L274.7,38.13l13.18,19.45h-5.4l-11-16.27c-2.34,1.82-3.6,3.89-3.3,7s.06,6.13.06,9.3h-4.43V23.79c1.44-.4,2.84-.08,4.4-.19V39.78Z" transform="translate(-8.35 -23.01)"/><path class="cls-1" d="M392,47.14H380.13L376.64,57.6h-4.72l11.5-33.87h5.48l11.56,33.83h-4.88Zm-10.86-3.78H391c-1.72-5.08-3.49-10-5-15.46C384.63,33.41,382.8,38.29,381.16,43.36Z" transform="translate(-8.35 -23.01)"/><path class="cls-1" d="M173.46,23.67h5.44l11.57,33.9H185.6l-3.54-10.37H170.12L166.67,57.6h-4.74ZM176,28.53c-1.35,5-3.29,9.83-4.79,14.83H181C179.37,38.32,177.51,33.53,176,28.53Z" transform="translate(-8.35 -23.01)"/><path class="cls-1" d="M460.86,27.46V38h13v3.77H461V53.82h14.37v3.75h-19V23.71h18.3v3.75Z" transform="translate(-8.35 -23.01)"/><path class="cls-1" d="M498.6,24.7l-1.2,3.73a16.64,16.64,0,0,0-6.79-1.53,7.73,7.73,0,0,0-3.31.76,4.79,4.79,0,0,0-.68,8.32,18,18,0,0,0,3.82,2,41.84,41.84,0,0,1,4.12,1.86c4.21,2.33,5.83,5.5,5.23,10-.53,3.92-3.3,6.81-7.72,7.84a18,18,0,0,1-12.61-1.52c-.24-1.45.72-2.5.71-3.95a26.82,26.82,0,0,0,5.54,1.92,12.12,12.12,0,0,0,5.56-.2,5.23,5.23,0,0,0,3.94-4.49,5.33,5.33,0,0,0-2.29-5.36A17.27,17.27,0,0,0,488.74,42a20.13,20.13,0,0,1-5-2.52c-5.76-4.23-4.91-12.38,1.67-15.25C489.76,22.34,494.13,22.83,498.6,24.7Z" transform="translate(-8.35 -23.01)"/><path class="cls-1" d="M27.73,24.9l-1.25,3.57c-2.76-1.21-5.51-2-8.48-1.35-2.11.46-3.67,1.56-4.15,3.77a4.81,4.81,0,0,0,2.22,5.32,23.85,23.85,0,0,0,4.2,2.1A37.31,37.31,0,0,1,23.88,40c3.89,2.2,5.7,5.59,5.17,9.54-.56,4.15-3.26,7.1-7.64,8.16A18.34,18.34,0,0,1,8.35,56.05l1.19-3.9a15.55,15.55,0,0,0,8.75,2.2c3-.15,5.28-1.72,6-4.16.73-2.64-.35-5.11-3.08-6.67a30.74,30.74,0,0,0-3.94-1.79,20.38,20.38,0,0,1-4.17-2.15c-5.69-4-5.24-11.72.88-15.06C17.69,22.48,23.85,22.62,27.73,24.9Z" transform="translate(-8.35 -23.01)"/><path class="cls-1" d="M256.59,24.87l-1.17,3.46A37.16,37.16,0,0,0,250.35,27a10,10,0,0,0-4.29.37,4.69,4.69,0,0,0-3.43,4,4.8,4.8,0,0,0,2.14,4.69,23,23,0,0,0,4.5,2.28c1.1.48,2.23.93,3.28,1.51,4.07,2.25,5.92,5.59,5.36,9.6-.6,4.32-3.23,7.12-7.74,8.26-4.25,1.08-9.58.35-12.79-1.77a15.72,15.72,0,0,1,1.05-3.7,16.9,16.9,0,0,0,8.5,2.12c3.23-.14,5.52-1.67,6.2-4.3s-.41-5.09-3.34-6.69A38.37,38.37,0,0,0,246,41.7a17.47,17.47,0,0,1-5-2.86A8.6,8.6,0,0,1,242,25C245.81,22.5,252.28,22.41,256.59,24.87Z" transform="translate(-8.35 -23.01)"/><path class="cls-1" d="M326.79,55.94l1.12-3.73a16.56,16.56,0,0,0,8.55,2.16c3.11-.14,5.54-1.71,6.16-4.12.74-2.9-.32-5.26-3.34-6.86-2.07-1.1-4.31-1.87-6.4-2.94-2.49-1.28-4.47-3.11-5.14-6A8.53,8.53,0,0,1,332,24.74c4.66-2.52,9.39-2,14.18,0l-1.24,3.72a16.92,16.92,0,0,0-6.65-1.53,7.19,7.19,0,0,0-4.4,1.37,4.8,4.8,0,0,0,.11,7.55,16.39,16.39,0,0,0,4.3,2.29,34.4,34.4,0,0,1,3.94,1.82c4.16,2.34,5.73,5.49,5.14,10-.49,3.74-3.36,6.64-7.65,7.73C335.89,58.68,329.93,58.1,326.79,55.94Z" transform="translate(-8.35 -23.01)"/><path class="cls-1" d="M287.5,23.64h5.15l8.1,16.06,5.56-10.85,1-1.92c2-3.81,2.07-3.85,6.79-3.1-1.59,2.75-3.13,5.44-4.69,8.12-2,3.43-4,6.88-6,10.27a4.3,4.3,0,0,0-.63,2.38c0,4.28,0,8.56,0,13h-4.57c0-3.4-.12-6.83,0-10.24A12.7,12.7,0,0,0,296.42,40c-2.84-4.82-5.44-9.78-8.13-14.68C288,24.82,287.83,24.33,287.5,23.64Z" transform="translate(-8.35 -23.01)"/><path class="cls-1" d="M349.5,27.58V23.73h24.95c.44,1.16.07,2.4.23,3.75h-10.2V57.55h-4.72v-30Z" transform="translate(-8.35 -23.01)"/><path class="cls-1" d="M437,53.83H451.4v3.75H432.63V23.69H437Z" transform="translate(-8.35 -23.01)"/><path class="cls-1" d="M452.07,84.93A1,1,0,0,1,452,86H335.62c-.34-.31-.3-.65-.15-1.1Z" transform="translate(-8.35 -23.01)"/><path class="cls-1" d="M50,86c-.32-.27-.15-.62-.2-1H166.46c.31.28.22.61.05,1Z" transform="translate(-8.35 -23.01)"/><path class="cls-1" d="M267.57,89.38l3.78-11.25a3.86,3.86,0,0,1,1.86-.17L277,89.31c-.48.39-1,.23-1.48.17L274.29,86h-4l-1.18,3.35A1.42,1.42,0,0,1,267.57,89.38Zm3.06-4.74h3.31l-1.68-5.14Z" transform="translate(-8.35 -23.01)"/><path class="cls-1" d="M259.9,89.48h-1.77l-2.78-3.78c-1.45,1-.52,2.42-.94,3.69-.27.38-.77.11-1.31.13V77.39c.4-.41.85-.07,1.42-.21V84.6c1.86-.87,2.09-3.69,4.95-3.36l-3.09,3.4Z" transform="translate(-8.35 -23.01)"/><path class="cls-1" d="M190.34,78.39a1.16,1.16,0,0,1-.32,1.08c-2.22-.4-4.51-.7-6,1.62a4.79,4.79,0,0,0,0,5.31c1.46,2.34,3.73,2,6,1.59.77,1,.07,1.19-.7,1.35-2.38.48-4.62.29-6.27-1.71a5.91,5.91,0,0,1-.68-6.47c1-2.36,3.08-3.24,5.57-3.24A5.32,5.32,0,0,1,190.34,78.39Z" transform="translate(-8.35 -23.01)"/><path class="cls-1" d="M228.56,88c.56,1,0,1.11-.64,1.3a6.2,6.2,0,0,1-6.67-2,6.57,6.57,0,0,1,.13-7.14c1.53-2.1,4.33-2.79,7.34-1.83.31.37-.1.66,0,1-5-.71-6.9.9-6.87,4.69C221.84,87.38,224.05,88.63,228.56,88Z" transform="translate(-8.35 -23.01)"/><path class="cls-1" d="M299,81.2a3.9,3.9,0,0,1,4.06,4.12,4,4,0,0,1-4,4.23,3.9,3.9,0,0,1-4-4.13A4,4,0,0,1,299,81.2Zm2.54,4.2c0-1.7-1-3-2.43-3s-2.52,1.15-2.58,2.89,1,3.16,2.5,3.14A2.74,2.74,0,0,0,301.55,85.4Z" transform="translate(-8.35 -23.01)"/><path class="cls-1" d="M215.17,85.52h-5.56c.11,2.61,1.2,3.18,5,2.61,0,1.59-1.19,1.34-2,1.4-2.76.2-4.48-1.3-4.59-3.89a4,4,0,0,1,3.92-4.44C214.12,81.24,215.29,82.75,215.17,85.52Zm-5.74-1.12h4.39c-.13-1.24-.68-2-1.88-2.09C210.56,82.2,209.91,83.05,209.43,84.4Z" transform="translate(-8.35 -23.01)"/><path class="cls-1" d="M242.78,85.51h-5.55c0,2.58,1.21,3.22,4.76,2.64.16,1.06,0,1.22-1.41,1.38-2.93.33-4.85-1.17-5-3.86a4,4,0,0,1,3.71-4.46C241.57,81.12,242.83,82.63,242.78,85.51Zm-1.4-1.07c-.11-1.43-.8-2.15-2.07-2.12a2.09,2.09,0,0,0-2.16,2.12Z" transform="translate(-8.35 -23.01)"/><path class="cls-1" d="M250.46,88.13c-.15,1.23-1,1.61-3,1.42a4.19,4.19,0,0,1,.52-8.34c2.1.12,3.18,1.56,3.13,4.3h-5.55C245.59,88.09,246.79,88.73,250.46,88.13Zm-.72-3.72c-.16-1.32-.76-2.1-2.06-2.09a2.12,2.12,0,0,0-2.21,2.09Z" transform="translate(-8.35 -23.01)"/><path class="cls-1" d="M196.39,84c-.51-2.74-2.53-1.35-4.32-1.42a3,3,0,0,1,3.23-1.35,2.55,2.55,0,0,1,2.51,2.61c.1,1.86,0,3.72,0,5.55-.88.46-1.19-.19-1.54-.75-1.18.88-2.41,1.28-3.71.41a2.08,2.08,0,0,1-.9-2.38C192.31,84.24,194.55,84.51,196.39,84Zm-.12,1.13c-1.46.18-3,0-3.11,2,0,.83.56,1.3,1.41,1.28C195.88,88.42,196.45,87.37,196.27,85.16Z" transform="translate(-8.35 -23.01)"/><path class="cls-1" d="M318.7,84c-.64-2.65-2.48-1.5-4-1.36.31-1.07.9-1.46,2.22-1.47a2.71,2.71,0,0,1,2.9,1.7,9.81,9.81,0,0,1,.27,3.4c0,1,0,2,0,3.09-.78.32-1.29.13-1.44-.81-1.3.93-2.57,1.39-3.91.42a2.09,2.09,0,0,1-.8-2.42C314.66,84.3,316.77,84.47,318.7,84Zm-.08,1.24c-2.25,0-3.26.53-3.21,1.79a1.29,1.29,0,0,0,1.34,1.38C318.05,88.51,318.69,87.46,318.63,85.29Z" transform="translate(-8.35 -23.01)"/><path class="cls-1" d="M306.7,89.49h-1.43V81.38c1-.65,1.11.35,1.51.83,1.2-.9,2.45-1.45,3.87-.6s1.51,2.09,1.5,3.46,0,2.88,0,4.3a1.48,1.48,0,0,1-1.53,0c0-1.53,0-3.09,0-4.64,0-1.19-.47-2.22-1.85-2.19a2,2,0,0,0-2,2.27C306.69,86.27,306.7,87.78,306.7,89.49Z" transform="translate(-8.35 -23.01)"/><path class="cls-1" d="M287.61,89.46c1.32-2.66,3.33-4.58,4.9-7H288.6c-.56-.39-.33-.74-.42-1.14h6.39c-1,2.76-3.26,4.53-4.57,6.9,1.48.7,3.32-.48,4.55.7l-.12.58Z" transform="translate(-8.35 -23.01)"/><path class="cls-1" d="M203.41,87.9l2.24-6.48a1.83,1.83,0,0,1,1.58-.1l-3.06,7.94c-.49.44-1,.27-1.55.22l-3-8c.53-.42,1-.21,1.53-.18Z" transform="translate(-8.35 -23.01)"/><path class="cls-1" d="M278.86,81.31c1.09-.44,1.16.43,1.32,1.15.84-.62,1.4-1.46,2.47-1.18a1.4,1.4,0,0,1,.09,1.18c-4.15,1.11-1.68,4.65-2.7,7h-1.19Z" transform="translate(-8.35 -23.01)"/><path class="cls-1" d="M230.58,81.34c1.07-.54,1.15.32,1.37,1.08.77-.55,1.34-1.36,2.36-1.19.5.3.09.78.3,1.14-4.22,1.1-1.83,4.61-2.88,7.18-.16.14-.61,0-1.14-.11Z" transform="translate(-8.35 -23.01)"/><path class="cls-1" d="M284.91,81.33a1.84,1.84,0,0,1,1.39,0v8.07a1.4,1.4,0,0,1-1.39,0Z" transform="translate(-8.35 -23.01)"/><path class="cls-1" d="M263.12,87.47c-.76,1.33-.5,3.22-2.59,4.15l1-4.09A1.91,1.91,0,0,1,263.12,87.47Z" transform="translate(-8.35 -23.01)"/><path class="cls-1" d="M286.36,79a.91.91,0,0,1-1.1.71.8.8,0,0,1-.7-1.05.82.82,0,0,1,1.05-.72A.93.93,0,0,1,286.36,79Z" transform="translate(-8.35 -23.01)"/></svg>
